Coordinates
version=1
nRows=21
nColumns=12
inDegrees=yes

Units are S.I. units (second, meters, Newtons, ...)
Angles are in degrees

endheader
time	SC_y	SC_z	SC_x	AC_y	AC_z	AC_x	GH_y	GH_z	GH_yy	EL_x	PS_y
       0.0              -24.72          28.61          42.25          67.54          7.755          5.961          91.51         -17.68          152.8          77.92          11.04
   0.02165              -24.72          28.61          42.25          67.53          7.752          5.962           91.5         -17.67          152.8          77.92          11.06
    0.0433              -24.72          28.61          42.25          67.53          7.749          5.964          91.49         -17.65          152.7          77.93          11.08
   0.06494              -24.72          28.62          42.25          67.53          7.746          5.965          91.48         -17.64          152.7          77.94          11.11
   0.08659              -24.73          28.62          42.25          67.52          7.743          5.966          91.47         -17.63          152.7          77.95          11.13
    0.1082              -24.73          28.62          42.25          67.52          7.739          5.968          91.46         -17.61          152.7          77.96          11.16
    0.1299              -24.73          28.62          42.25          67.52          7.736          5.969          91.44          -17.6          152.6          77.97          11.18
    0.1515              -24.73          28.62          42.25          67.51          7.732          5.971          91.43         -17.58          152.6          77.98          11.21
    0.1732              -24.73          28.62          42.25          67.51          7.727          5.973          91.41         -17.56          152.5          77.99          11.25
    0.1948              -24.73          28.62          42.25           67.5          7.723          5.975           91.4         -17.54          152.5           78.0          11.28
    0.2165              -24.73          28.62          42.25           67.5          7.718          5.977          91.38         -17.52          152.4          78.02          11.32
    0.2381              -24.74          28.63          42.25          67.49          7.712          5.979          91.36          -17.5          152.4          78.03          11.35
    0.2598              -24.74          28.63          42.25          67.49          7.706          5.981          91.34         -17.47          152.3          78.05           11.4
    0.2814              -24.74          28.63          42.25          67.48            7.7          5.984          91.31         -17.44          152.3          78.06          11.44
    0.3031              -24.74          28.63          42.25          67.47          7.693          5.987          91.29         -17.42          152.2          78.08          11.49
    0.3247              -24.75          28.63          42.25          67.47          7.686           5.99          91.26         -17.38          152.1           78.1          11.55
    0.3464              -24.75          28.64          42.25          67.46          7.678          5.993          91.23         -17.35          152.1          78.12           11.6
     0.368              -24.75          28.64          42.25          67.45          7.669          5.997           91.2         -17.31          152.0          78.15          11.67
    0.3897              -24.76          28.64          42.25          67.44           7.66            6.0          91.17         -17.27          151.9          78.17          11.74
    0.4113              -24.76          28.64          42.25          67.43          7.649          6.005          91.13         -17.23          151.8           78.2          11.81
     0.433              -24.76          28.65          42.25          67.42          7.638          6.009          91.09         -17.18          151.7          78.23           11.9
